<?xml version="1.0" encoding="utf-8" ?>
<svg baseProfile="full" height="300mm" version="1.1" width="400mm" xmlns="http://www.w3.org/2000/svg" xmlns:ev="http://www.w3.org/2001/xml-events" xmlns:xlink="http://www.w3.org/1999/xlink"><defs><style type="text/css"><![CDATA[
        .text { font-family: Arial; font-size: 10px; }
        .pin-label { font-family: Arial; font-size: 8px; fill: #555; }
        .component-box { fill: #f0f0f0; stroke: #000; stroke-width: 2; }
        .wire { fill: none; stroke-width: 1.5; opacity: 0.7; }
        .wire-pwm { stroke: #ff0000; }
        .wire-dir { stroke: #0000ff; }
        .wire-enc { stroke: #00aa00; }
        .wire-pwr { stroke: #ff0000; stroke-width: 2; }
        .wire-gnd { stroke: #000000; stroke-width: 2; }
        .conflict { fill: red; font-weight: bold; font-size: 12px; }
    ]]></style></defs><rect class="component-box" height="120" width="60" x="150" y="100" /><text class="text" x="155" y="115">Lolin32 Lite</text><text class="pin-label" x="152" y="129">G22</text><circle cx="150" cy="125" fill="black" r="2" /><text class="pin-label" x="152" y="135">G21</text><circle cx="150" cy="131" fill="black" r="2" /><text class="pin-label" x="152" y="141">G17</text><circle cx="150" cy="137" fill="black" r="2" /><text class="pin-label" x="152" y="147">G16</text><circle cx="150" cy="143" fill="black" r="2" /><text class="pin-label" x="152" y="153">G4</text><circle cx="150" cy="149" fill="black" r="2" /><text class="pin-label" x="152" y="159">G0</text><circle cx="150" cy="155" fill="black" r="2" /><text class="pin-label" x="152" y="165">G2</text><circle cx="150" cy="161" fill="black" r="2" /><text class="pin-label" x="152" y="171">G15</text><circle cx="150" cy="167" fill="black" r="2" /><text class="pin-label" x="152" y="177">G13</text><circle cx="150" cy="173" fill="black" r="2" /><text class="pin-label" x="152" y="183">G12</text><circle cx="150" cy="179" fill="black" r="2" /><text class="pin-label" x="152" y="189">G14</text><circle cx="150" cy="185" fill="black" r="2" /><text class="pin-label" x="152" y="195">G27</text><circle cx="150" cy="191" fill="black" r="2" /><text class="pin-label" x="152" y="201">G26</text><circle cx="150" cy="197" fill="black" r="2" /><text class="pin-label" x="152" y="207">G25</text><circle cx="150" cy="203" fill="black" r="2" /><text class="pin-label" x="152" y="213">G33</text><circle cx="150" cy="209" fill="black" r="2" /><text class="pin-label" x="152" y="219">G32</text><circle cx="150" cy="215" fill="black" r="2" /><text class="pin-label" x="195" y="129">G35</text><circle cx="210" cy="125" fill="black" r="2" /><text class="pin-label" x="195" y="135">G34</text><circle cx="210" cy="131" fill="black" r="2" /><text class="pin-label" x="195" y="141">G39</text><circle cx="210" cy="137" fill="black" r="2" /><text class="pin-label" x="195" y="147">G36</text><circle cx="210" cy="143" fill="black" r="2" /><text class="pin-label" x="195" y="153">G19</text><circle cx="210" cy="149" fill="black" r="2" /><text class="pin-label" x="195" y="159">G23</text><circle cx="210" cy="155" fill="black" r="2" /><text class="pin-label" x="195" y="165">G18</text><circle cx="210" cy="161" fill="black" r="2" /><text class="pin-label" x="195" y="171">G5</text><circle cx="210" cy="167" fill="black" r="2" /><rect class="component-box" height="100" width="80" x="20" y="20" /><text class="text" x="25" y="35">Driver 1 (X, Y)</text><text class="pin-label" x="22" y="54">ENA</text><circle cx="20" cy="50" fill="blue" r="2" /><text class="pin-label" x="22" y="64">IN1</text><circle cx="20" cy="60" fill="blue" r="2" /><text class="pin-label" x="22" y="74">IN2</text><circle cx="20" cy="70" fill="blue" r="2" /><text class="pin-label" x="22" y="84">IN3</text><circle cx="20" cy="80" fill="blue" r="2" /><text class="pin-label" x="22" y="94">IN4</text><circle cx="20" cy="90" fill="blue" r="2" /><text class="pin-label" x="22" y="104">ENB</text><circle cx="20" cy="100" fill="blue" r="2" /><text class="pin-label" text-anchor="end" x="95" y="54">OUT1</text><circle cx="100" cy="50" fill="orange" r="2" /><text class="pin-label" text-anchor="end" x="95" y="69">OUT2</text><circle cx="100" cy="65" fill="orange" r="2" /><text class="pin-label" text-anchor="end" x="95" y="84">OUT3</text><circle cx="100" cy="80" fill="orange" r="2" /><text class="pin-label" text-anchor="end" x="95" y="99">OUT4</text><circle cx="100" cy="95" fill="orange" r="2" /><rect class="component-box" height="100" width="80" x="280" y="20" /><text class="text" x="285" y="35">Driver 2 (Z, E)</text><text class="pin-label" x="282" y="54">ENA</text><circle cx="280" cy="50" fill="blue" r="2" /><text class="pin-label" x="282" y="64">IN1</text><circle cx="280" cy="60" fill="blue" r="2" /><text class="pin-label" x="282" y="74">IN2</text><circle cx="280" cy="70" fill="blue" r="2" /><text class="pin-label" x="282" y="84">IN3</text><circle cx="280" cy="80" fill="blue" r="2" /><text class="pin-label" x="282" y="94">IN4</text><circle cx="280" cy="90" fill="blue" r="2" /><text class="pin-label" x="282" y="104">ENB</text><circle cx="280" cy="100" fill="blue" r="2" /><text class="pin-label" text-anchor="end" x="355" y="54">OUT1</text><circle cx="360" cy="50" fill="orange" r="2" /><text class="pin-label" text-anchor="end" x="355" y="69">OUT2</text><circle cx="360" cy="65" fill="orange" r="2" /><text class="pin-label" text-anchor="end" x="355" y="84">OUT3</text><circle cx="360" cy="80" fill="orange" r="2" /><text class="pin-label" text-anchor="end" x="355" y="99">OUT4</text><circle cx="360" cy="95" fill="orange" r="2" /><rect class="component-box" height="50" width="60" x="20" y="150" /><text class="text" x="25" y="165">Motor X</text><text class="pin-label" x="23" y="190">M+</text><circle cx="25" cy="195" fill="green" r="2" /><text class="pin-label" x="33" y="190">M-</text><circle cx="35" cy="195" fill="green" r="2" /><text class="pin-label" x="43" y="190">5V</text><circle cx="45" cy="195" fill="green" r="2" /><text class="pin-label" x="53" y="190">GND</text><circle cx="55" cy="195" fill="green" r="2" /><text class="pin-label" x="63" y="190">A</text><circle cx="65" cy="195" fill="green" r="2" /><text class="pin-label" x="73" y="190">B</text><circle cx="75" cy="195" fill="green" r="2" /><rect class="component-box" height="50" width="60" x="120" y="150" /><text class="text" x="125" y="165">Motor Y</text><text class="pin-label" x="123" y="190">M+</text><circle cx="125" cy="195" fill="green" r="2" /><text class="pin-label" x="133" y="190">M-</text><circle cx="135" cy="195" fill="green" r="2" /><text class="pin-label" x="143" y="190">5V</text><circle cx="145" cy="195" fill="green" r="2" /><text class="pin-label" x="153" y="190">GND</text><circle cx="155" cy="195" fill="green" r="2" /><text class="pin-label" x="163" y="190">A</text><circle cx="165" cy="195" fill="green" r="2" /><text class="pin-label" x="173" y="190">B</text><circle cx="175" cy="195" fill="green" r="2" /><rect class="component-box" height="50" width="60" x="280" y="150" /><text class="text" x="285" y="165">Motor Z</text><text class="pin-label" x="283" y="190">M+</text><circle cx="285" cy="195" fill="green" r="2" /><text class="pin-label" x="293" y="190">M-</text><circle cx="295" cy="195" fill="green" r="2" /><text class="pin-label" x="303" y="190">5V</text><circle cx="305" cy="195" fill="green" r="2" /><text class="pin-label" x="313" y="190">GND</text><circle cx="315" cy="195" fill="green" r="2" /><text class="pin-label" x="323" y="190">A</text><circle cx="325" cy="195" fill="green" r="2" /><text class="pin-label" x="333" y="190">B</text><circle cx="335" cy="195" fill="green" r="2" /><rect class="component-box" height="50" width="60" x="360" y="150" /><text class="text" x="365" y="165">Motor E</text><text class="pin-label" x="363" y="190">M+</text><circle cx="365" cy="195" fill="green" r="2" /><text class="pin-label" x="373" y="190">M-</text><circle cx="375" cy="195" fill="green" r="2" /><text class="pin-label" x="383" y="190">5V</text><circle cx="385" cy="195" fill="green" r="2" /><text class="pin-label" x="393" y="190">GND</text><circle cx="395" cy="195" fill="green" r="2" /><text class="pin-label" x="403" y="190">A</text><circle cx="405" cy="195" fill="green" r="2" /><text class="pin-label" x="413" y="190">B</text><circle cx="415" cy="195" fill="green" r="2" /><rect class="component-box" height="40" width="40" x="280" y="250" /><text class="text" x="282" y="265">Hotend FET</text><text class="pin-label" x="282" y="280">SIG</text><circle cx="280" cy="280" fill="red" r="2" /><rect class="component-box" height="40" width="40" x="350" y="250" /><text class="text" x="352" y="265">Bed FET</text><text class="pin-label" x="352" y="280">SIG</text><circle cx="350" cy="280" fill="red" r="2" /><line opacity="0.6" stroke="purple" stroke-width="1" x1="150" x2="20" y1="125" y2="60" /><line opacity="0.6" stroke="orange" stroke-width="1" x1="150" x2="20" y1="131" y2="70" /><line opacity="0.6" stroke="green" stroke-width="1" x1="210" x2="65" y1="131" y2="195" /><line opacity="0.6" stroke="green" stroke-width="1" x1="210" x2="75" y1="125" y2="195" /><line opacity="0.6" stroke="purple" stroke-width="1" x1="210" x2="20" y1="149" y2="80" /><line opacity="0.6" stroke="orange" stroke-width="1" x1="210" x2="20" y1="155" y2="90" /><line opacity="0.6" stroke="green" stroke-width="1" x1="210" x2="165" y1="143" y2="195" /><line opacity="0.6" stroke="green" stroke-width="1" x1="210" x2="175" y1="137" y2="195" /><line opacity="0.6" stroke="purple" stroke-width="1" x1="210" x2="280" y1="161" y2="60" /><line opacity="0.6" stroke="orange" stroke-width="1" x1="210" x2="280" y1="167" y2="70" /><line opacity="0.6" stroke="green" stroke-width="1" x1="150" x2="325" y1="203" y2="195" /><line opacity="0.6" stroke="green" stroke-width="1" x1="150" x2="335" y1="197" y2="195" /><line opacity="0.6" stroke="purple" stroke-width="1" x1="150" x2="280" y1="137" y2="80" /><line opacity="0.6" stroke="orange" stroke-width="1" x1="150" x2="280" y1="143" y2="90" /><line opacity="0.6" stroke="green" stroke-width="1" x1="150" x2="405" y1="191" y2="195" /><line opacity="0.6" stroke="green" stroke-width="1" x1="150" x2="415" y1="185" y2="195" /><line opacity="0.6" stroke="red" stroke-width="1" x1="150" x2="280" y1="149" y2="280" /><line opacity="0.6" stroke="red" stroke-width="1" x1="150" x2="350" y1="173" y2="280" /><line opacity="0.8" stroke="orange" stroke-width="2" x1="100" x2="25" y1="50" y2="195" /><line opacity="0.8" stroke="orange" stroke-width="2" x1="100" x2="35" y1="65" y2="195" /><line opacity="0.8" stroke="orange" stroke-width="2" x1="100" x2="125" y1="80" y2="195" /><line opacity="0.8" stroke="orange" stroke-width="2" x1="100" x2="135" y1="95" y2="195" /><line opacity="0.8" stroke="orange" stroke-width="2" x1="360" x2="285" y1="50" y2="195" /><line opacity="0.8" stroke="orange" stroke-width="2" x1="360" x2="295" y1="65" y2="195" /><line opacity="0.8" stroke="orange" stroke-width="2" x1="360" x2="365" y1="80" y2="195" /><line opacity="0.8" stroke="orange" stroke-width="2" x1="360" x2="375" y1="95" y2="195" /><text class="conflict" x="150" y="250">CONFLICTS DETECTED IN CONFIG.H:</text></svg>